<svg width="16" height="35" viewBox="0 0 16 35" fill="none" xmlns="http://www.w3.org/2000/svg">
<path d="M8.79482 34.7326L15.7353 27.7387C16.0882 27.3835 16.0882 26.8136 15.7353 26.4584C15.3824 26.1031 14.8163 26.1031 14.4634 26.4584L9.05215 31.9055L9.05215 0.910316C9.05215 0.407052 8.64778 -3.21376e-07 8.14782 -3.43229e-07C7.64787 -3.65083e-07 7.2435 0.407052 7.2435 0.910316L7.2435 31.9055L1.84697 26.4584C1.49406 26.1031 0.927939 26.1031 0.575033 26.4584C0.398579 26.636 0.310353 26.8654 0.310353 27.1023C0.310353 27.3391 0.398579 27.5685 0.575033 27.7461L7.52288 34.74C7.86844 35.0879 8.44191 35.0879 8.79482 34.7326Z" fill="white"/>
</svg>
