<svg width="32" height="32" viewBox="0 0 32 32" fill="none" xmlns="http://www.w3.org/2000/svg">
<path d="M27.4794 4.03427C24.5614 1.34476 20.9319 0 16.5973 0C12.0408 0 8.1567 1.52754 4.95148 4.58915C1.74626 7.65075 0.140381 11.4565 0.140381 16.0131C0.140381 20.3803 1.66792 24.1338 4.71647 27.2803C7.77808 30.4268 11.8907 32 17.0674 32C20.1877 32 23.2493 31.3603 26.2522 30.0743C27.2314 29.6565 27.7079 28.5337 27.3097 27.5479C26.8984 26.5296 25.7365 26.0596 24.7246 26.4904C22.1135 27.6132 19.5545 28.1746 17.0608 28.1746C13.0918 28.1746 10.0172 26.967 7.83683 24.5451C5.66303 22.1297 4.57286 19.2901 4.57286 16.0326C4.57286 12.4945 5.74136 9.54386 8.07184 7.17421C10.3958 4.8111 13.2616 3.62301 16.6561 3.62301C19.783 3.62301 22.4268 4.59567 24.581 6.541C26.7352 8.48633 27.8124 10.9343 27.8124 13.8849C27.8124 15.9021 27.3162 17.5863 26.3305 18.9245C25.3448 20.2693 24.3199 20.9351 23.2559 20.9351C22.6814 20.9351 22.3942 20.6283 22.3942 20.0082C22.3942 19.5055 22.4333 18.918 22.5051 18.2391L23.7193 8.31008H19.5414L19.2738 9.28274C18.2097 8.41452 17.0412 7.97715 15.7748 7.97715C13.7642 7.97715 12.0408 8.78009 10.6112 10.3794C9.17506 11.9788 8.46352 14.0416 8.46352 16.5614C8.46352 19.0224 9.09673 21.0135 10.3697 22.5214C11.6426 24.0359 13.1702 24.7866 14.9588 24.7866C16.5582 24.7866 17.9225 24.1142 19.0584 22.776C19.9135 24.062 21.1734 24.7018 22.8381 24.7018C25.286 24.7018 27.4011 23.6377 29.1832 21.5031C30.9654 19.3749 31.8597 16.8029 31.8597 13.7936C31.8597 9.98123 30.404 6.72379 27.4794 4.03427ZM17.8572 19.0551C17.1196 20.0473 16.2383 20.55 15.2134 20.55C14.5149 20.55 13.9535 20.1844 13.5292 19.4533C13.0984 18.7222 12.8829 17.8148 12.8829 16.7246C12.8829 15.3798 13.1832 14.2962 13.7838 13.4737C14.3844 12.6512 15.1286 12.2334 16.0164 12.2334C16.7867 12.2334 17.4721 12.5402 18.0727 13.1603C18.6732 13.7805 18.9735 14.603 18.9735 15.6344C18.967 16.9204 18.5949 18.0563 17.8572 19.0551Z" fill="white"/>
</svg>
