<svg width="208" height="113" viewBox="0 0 208 113" fill="none" xmlns="http://www.w3.org/2000/svg">
<path fill-rule="evenodd" clip-rule="evenodd" d="M5.17838 81.8502L0 92.3901H21.4811V71.3103H0L5.17838 81.8502Z" fill="white"/>
<path fill-rule="evenodd" clip-rule="evenodd" d="M208 71.3103H186.509V92.3901H208L202.812 81.8502L208 71.3103Z" fill="white"/>
<path d="M41.9536 66.775C40.0855 67.3877 38.6353 68.4048 37.6029 69.8264C36.5951 71.2234 36.0912 72.9636 36.0912 75.0468C36.0912 75.9782 36.1772 76.6154 36.3493 76.9585C36.5213 77.3017 36.6074 77.51 36.6074 77.5835C33.9773 77.5835 32.6622 76.4684 32.6622 74.238C32.6622 72.7185 33.2399 71.1989 34.3951 69.6793C35.575 68.1352 37.0744 66.8853 38.8933 65.9294C40.7369 64.9491 42.5681 64.4589 44.3871 64.4589C45.2965 64.4589 46.2306 64.6304 47.1892 64.9736L46.3412 84.3481L54.4527 64.9736H59.762L55.8906 92.0317H50.5813L52.941 75.5248L46.0094 92.0317H40.9581L41.6955 75.4512L35.5381 92.0317H32.5885L41.9536 66.775Z" fill="white"/>
<path d="M64.4118 92.2523C62.5928 92.2523 61.1794 91.7866 60.1716 90.8553C59.1639 89.8994 58.66 88.4166 58.66 86.4068C58.66 84.7157 58.9918 82.853 59.6555 80.8187C60.3191 78.7845 61.4007 77.0321 62.9001 75.5615C64.3995 74.0665 66.3044 73.3189 68.615 73.3189C71.3188 73.3189 72.6707 74.4954 72.6707 76.8483C72.6707 78.2208 72.2775 79.483 71.4909 80.6349C70.7043 81.7869 69.6596 82.7182 68.3569 83.429C67.0541 84.1152 65.6653 84.5074 64.1905 84.6054C64.1414 85.3407 64.1168 85.8309 64.1168 86.076C64.1168 87.2769 64.3257 88.098 64.7436 88.5391C65.1615 88.9558 65.8374 89.1641 66.7715 89.1641C68.0988 89.1641 69.2295 88.8578 70.1635 88.245C71.1222 87.6323 72.1668 86.701 73.2975 85.451H74.5511C71.8227 89.9852 68.4429 92.2523 64.4118 92.2523ZM64.4855 82.8408C65.395 82.7917 66.2553 82.4731 67.0664 81.8849C67.9022 81.2967 68.5658 80.5491 69.0574 79.6423C69.5736 78.7355 69.8317 77.7796 69.8317 76.7747C69.8317 75.7699 69.5245 75.2674 68.91 75.2674C68.0251 75.2674 67.1525 76.0395 66.2921 77.5835C65.4564 79.1276 64.8542 80.88 64.4855 82.8408Z" fill="white"/>
<path d="M75.797 73.6498H81.1063L80.627 75.9292C81.4627 75.1939 82.2124 74.6302 82.8761 74.238C83.5643 73.8459 84.3017 73.6498 85.0883 73.6498C85.8749 73.6498 86.4894 73.9194 86.9318 74.4586C87.3989 74.9978 87.6324 75.6473 87.6324 76.4071C87.6324 77.1179 87.3989 77.7429 86.9318 78.2821C86.4648 78.8213 85.8134 79.0909 84.9777 79.0909C84.4369 79.0909 84.0682 78.9683 83.8716 78.7232C83.6995 78.4536 83.5643 78.0737 83.466 77.5835C83.3923 77.2649 83.3185 77.0321 83.2448 76.885C83.1711 76.738 83.0359 76.6644 82.8392 76.6644C82.323 76.6644 81.8806 76.7747 81.5119 76.9953C81.1677 77.1914 80.713 77.5468 80.1477 78.0615L77.198 92.0317H71.8887L75.797 73.6498Z" fill="white"/>
<path d="M92.4247 92.2523C90.6057 92.2523 89.1924 91.7866 88.1846 90.8553C87.1768 89.8994 86.6729 88.4166 86.6729 86.4068C86.6729 84.7157 87.0047 82.853 87.6684 80.8187C88.3566 78.7845 89.4382 77.0321 90.913 75.5615C92.4124 74.0665 94.3051 73.3189 96.591 73.3189C98.0659 73.3189 99.1105 73.6376 99.725 74.2748C100.364 74.912 100.684 75.7208 100.684 76.7012C100.684 77.559 100.499 78.2208 100.131 78.6864C99.7619 79.1521 99.2949 79.385 98.7295 79.385C98.3117 79.385 97.8815 79.2379 97.4391 78.9438C97.734 78.135 97.8815 77.412 97.8815 76.7747C97.8815 76.3091 97.7955 75.9414 97.6234 75.6718C97.4513 75.4022 97.1933 75.2674 96.8491 75.2674C96.1117 75.2674 95.3743 75.8679 94.6369 77.0688C93.8995 78.2698 93.2973 79.7281 92.8302 81.4437C92.3632 83.1594 92.1297 84.7035 92.1297 86.076C92.1297 87.2769 92.3386 88.098 92.7565 88.5391C93.1744 88.9558 93.8503 89.1641 94.7844 89.1641C96.1117 89.1641 97.2424 88.8578 98.1765 88.245C99.1351 87.6323 100.18 86.701 101.31 85.451H102.564C99.8356 89.9852 96.4558 92.2523 92.4247 92.2523Z" fill="white"/>
<path d="M105.727 92.2523C104.326 92.2523 103.159 91.7743 102.224 90.8185C101.29 89.8626 100.823 88.3676 100.823 86.3333C100.823 84.5196 101.18 82.6202 101.893 80.6349C102.63 78.6252 103.712 76.934 105.137 75.5615C106.587 74.1645 108.308 73.466 110.299 73.466C111.307 73.466 112.057 73.6376 112.548 73.9807C113.04 74.3238 113.286 74.7772 113.286 75.3409V75.5983L113.691 73.6498H119.001L116.346 86.1495C116.248 86.5171 116.198 86.9093 116.198 87.3259C116.198 88.3798 116.702 88.9068 117.71 88.9068C118.398 88.9068 118.988 88.5882 119.48 87.9509C119.996 87.3137 120.402 86.4804 120.697 85.451H122.245C121.336 88.098 120.205 89.8994 118.853 90.8553C117.526 91.7866 116.186 92.2523 114.834 92.2523C113.802 92.2523 112.966 91.9704 112.327 91.4067C111.712 90.8185 111.344 89.9729 111.221 88.87C110.508 89.8749 109.709 90.696 108.824 91.3332C107.964 91.9459 106.932 92.2523 105.727 92.2523ZM108.124 88.6862C108.738 88.6862 109.34 88.4043 109.93 87.8406C110.545 87.2524 110.963 86.4559 111.184 85.451L112.954 77.1424C112.954 76.8238 112.831 76.5174 112.585 76.2233C112.339 75.9047 111.958 75.7453 111.442 75.7453C110.459 75.7453 109.574 76.3213 108.787 77.4732C108.001 78.6007 107.386 79.9732 106.944 81.5908C106.501 83.1839 106.28 84.5932 106.28 85.8186C106.28 87.0441 106.452 87.8284 106.796 88.1715C107.165 88.5146 107.608 88.6862 108.124 88.6862Z" fill="white"/>
<path d="M125.135 92.2523C123.733 92.2523 122.566 91.7743 121.632 90.8185C120.698 89.8626 120.231 88.3676 120.231 86.3333C120.231 84.5196 120.587 82.6202 121.3 80.6349C122.037 78.6252 123.119 76.934 124.545 75.5615C125.995 74.1645 127.715 73.466 129.706 73.466C130.714 73.466 131.464 73.6376 131.956 73.9807C132.447 74.3238 132.693 74.7772 132.693 75.3409V75.488L134.5 67.0323L139.956 66.2971L135.716 86.1495C135.618 86.5171 135.569 86.9093 135.569 87.3259C135.569 87.8161 135.68 88.1715 135.901 88.3921C136.147 88.5882 136.54 88.6862 137.081 88.6862C137.769 88.6862 138.359 88.3921 138.85 87.8039C139.367 87.2156 139.772 86.4314 140.067 85.451H141.616C140.116 89.8381 137.646 92.0317 134.205 92.0317C133.197 92.0317 132.373 91.7621 131.734 91.2229C131.12 90.6837 130.739 89.8994 130.591 88.87C129.952 89.8504 129.178 90.6592 128.269 91.2964C127.384 91.9337 126.339 92.2523 125.135 92.2523ZM127.531 88.6862C128.121 88.6862 128.711 88.4166 129.301 87.8774C129.915 87.3382 130.333 86.5907 130.555 85.6348V85.451L132.361 77.0321C132.14 76.1743 131.636 75.7453 130.849 75.7453C129.866 75.7453 128.981 76.3213 128.195 77.4732C127.408 78.6007 126.794 79.9732 126.351 81.5908C125.909 83.1839 125.688 84.5932 125.688 85.8186C125.688 87.0441 125.86 87.8284 126.204 88.1715C126.573 88.5146 127.015 88.6862 127.531 88.6862Z" fill="white"/>
<path d="M146.239 71.6646C145.428 71.6646 144.739 71.3827 144.174 70.819C143.609 70.2553 143.326 69.569 143.326 68.7602C143.326 67.9514 143.609 67.2652 144.174 66.7015C144.739 66.1132 145.428 65.8191 146.239 65.8191C147.05 65.8191 147.738 66.1132 148.304 66.7015C148.894 67.2652 149.189 67.9514 149.189 68.7602C149.189 69.569 148.894 70.2553 148.304 70.819C147.738 71.3827 147.05 71.6646 146.239 71.6646ZM143.732 92.2523C142.552 92.2523 141.593 91.8846 140.856 91.1494C140.143 90.4141 139.787 89.3112 139.787 87.8406C139.787 87.2279 139.885 86.4314 140.081 85.451L142.589 73.6498H147.898L145.243 86.1495C145.145 86.5171 145.096 86.9093 145.096 87.3259C145.096 87.8161 145.206 88.1715 145.428 88.3921C145.674 88.5882 146.067 88.6862 146.608 88.6862C147.32 88.6862 147.984 88.3921 148.599 87.8039C149.213 87.1911 149.656 86.4068 149.926 85.451H151.474C150.565 88.098 149.397 89.8994 147.972 90.8553C146.546 91.7866 145.133 92.2523 143.732 92.2523Z" fill="white"/>
<path d="M153.561 92.2523C152.382 92.2523 151.423 91.8846 150.686 91.1494C149.973 90.4141 149.616 89.3112 149.616 87.8406C149.616 87.2279 149.715 86.4314 149.911 85.451L152.123 75.1204H150.907L151.202 73.6498H152.418L153.525 68.5764L158.981 67.8411L157.728 73.6498H159.94L159.645 75.1204H157.433L155.073 86.1495C154.975 86.5171 154.926 86.9093 154.926 87.3259C154.926 87.8161 155.036 88.1715 155.257 88.3921C155.503 88.5882 155.897 88.6862 156.437 88.6862C157.15 88.6862 157.814 88.3921 158.428 87.8039C159.043 87.1911 159.485 86.4068 159.756 85.451H161.304C160.395 88.098 159.227 89.8994 157.802 90.8553C156.376 91.7866 154.962 92.2523 153.561 92.2523Z" fill="white"/>
<path d="M165.124 92.1788C163.305 92.1788 161.867 91.7131 160.81 90.7817C159.753 89.8504 159.225 88.3798 159.225 86.3701C159.225 84.6789 159.557 82.8285 160.22 80.8187C160.884 78.7845 161.965 77.0321 163.465 75.5615C164.964 74.0665 166.882 73.3189 169.217 73.3189C172.117 73.3189 173.678 74.9733 173.899 78.2821C174.44 78.1595 174.919 77.8654 175.337 77.3997C175.755 76.9095 176.148 76.3581 176.517 75.7453H177.697C177.033 77.0688 176.443 78.1105 175.927 78.8703C175.411 79.6055 174.735 80.206 173.899 80.6717C173.752 82.9756 173.272 84.9976 172.461 86.7377C171.675 88.4779 170.642 89.8259 169.364 90.7817C168.086 91.7131 166.673 92.1788 165.124 92.1788ZM166.599 88.87C167.508 88.87 168.356 88.1347 169.143 86.6642C169.929 85.1936 170.47 83.38 170.765 81.2231C170.175 81.0026 169.88 80.4511 169.88 79.5688C169.88 78.6129 170.224 77.9757 170.913 77.6571C170.864 76.8728 170.728 76.3336 170.507 76.0395C170.31 75.7208 169.979 75.5615 169.512 75.5615C168.7 75.5615 167.926 76.1497 167.189 77.3262C166.451 78.4781 165.849 79.8874 165.382 81.554C164.94 83.1961 164.718 84.6422 164.718 85.8921C164.718 87.0686 164.854 87.8651 165.124 88.2818C165.394 88.6739 165.886 88.87 166.599 88.87Z" fill="white"/>
<path d="M60.8732 108.839H57.0341V112.869H55.3766V103.358H61.4366V104.691H57.0341V107.519H60.8732V108.839Z" fill="white"/>
<path d="M63.499 109.27C63.499 108.578 63.6366 107.955 63.9117 107.402C64.1869 106.844 64.5734 106.418 65.0713 106.121C65.5692 105.821 66.1414 105.671 66.7878 105.671C67.7443 105.671 68.5195 105.978 69.1135 106.592C69.7119 107.206 70.035 108.02 70.0831 109.035L70.0896 109.407C70.0896 110.104 69.9542 110.727 69.6835 111.275C69.417 111.824 69.0327 112.249 68.5304 112.549C68.0325 112.85 67.456 113 66.8009 113C65.8007 113 64.9992 112.669 64.3965 112.007C63.7982 111.341 63.499 110.455 63.499 109.348V109.27ZM65.091 109.407C65.091 110.134 65.2416 110.705 65.543 111.119C65.8444 111.528 66.2637 111.733 66.8009 111.733C67.3381 111.733 67.7552 111.524 68.0522 111.106C68.3535 110.688 68.5042 110.076 68.5042 109.27C68.5042 108.556 68.3492 107.99 68.0391 107.572C67.7333 107.154 67.3162 106.944 66.7878 106.944C66.268 106.944 65.8553 107.151 65.5496 107.565C65.2438 107.974 65.091 108.588 65.091 109.407Z" fill="white"/>
<path d="M72.4796 109.27C72.4796 108.578 72.6172 107.955 72.8923 107.402C73.1675 106.844 73.554 106.418 74.0519 106.121C74.5498 105.821 75.122 105.671 75.7684 105.671C76.7249 105.671 77.5001 105.978 78.0941 106.592C78.6924 107.206 79.0156 108.02 79.0637 109.035L79.0702 109.407C79.0702 110.104 78.9348 110.727 78.664 111.275C78.3976 111.824 78.0133 112.249 77.511 112.549C77.0131 112.85 76.4366 113 75.7815 113C74.7813 113 73.9798 112.669 73.3771 112.007C72.7788 111.341 72.4796 110.455 72.4796 109.348V109.27ZM74.0715 109.407C74.0715 110.134 74.2222 110.705 74.5236 111.119C74.825 111.528 75.2442 111.733 75.7815 111.733C76.3187 111.733 76.7358 111.524 77.0328 111.106C77.3341 110.688 77.4848 110.076 77.4848 109.27C77.4848 108.556 77.3298 107.99 77.0197 107.572C76.7139 107.154 76.2968 106.944 75.7684 106.944C75.2486 106.944 74.8359 107.151 74.5302 107.565C74.2244 107.974 74.0715 108.588 74.0715 109.407Z" fill="white"/>
<path d="M81.4602 109.283C81.4602 108.194 81.7135 107.321 82.2201 106.664C82.7268 106.002 83.4059 105.671 84.2576 105.671C85.0088 105.671 85.6159 105.932 86.0789 106.455V102.836H87.6708V112.869H86.2296L86.1509 112.138C85.6749 112.713 85.0394 113 84.2445 113C83.4146 113 82.742 112.667 82.2267 112.001C81.7157 111.334 81.4602 110.428 81.4602 109.283ZM83.0521 109.42C83.0521 110.139 83.1897 110.701 83.4649 111.106C83.7444 111.506 84.1397 111.707 84.6507 111.707C85.3014 111.707 85.7775 111.417 86.0789 110.838V107.82C85.7862 107.254 85.3145 106.971 84.6638 106.971C84.1484 106.971 83.751 107.175 83.4714 107.585C83.1919 107.99 83.0521 108.602 83.0521 109.42Z" fill="white"/>
<path d="M95.104 110.302C95.104 109.862 95.2241 109.459 95.4643 109.094C95.7045 108.723 96.1784 108.286 96.886 107.781C96.5147 107.315 96.2549 106.918 96.1064 106.592C95.9622 106.265 95.8902 105.949 95.8902 105.645C95.8902 104.9 96.1173 104.312 96.5715 103.881C97.0257 103.445 97.6372 103.228 98.4059 103.228C99.1003 103.228 99.6681 103.432 100.109 103.842C100.555 104.247 100.777 104.75 100.777 105.351C100.777 105.747 100.677 106.113 100.476 106.448C100.275 106.779 99.9454 107.11 99.4869 107.441L98.8383 107.911L100.679 110.08C100.946 109.557 101.079 108.976 101.079 108.336H102.461C102.461 109.507 102.186 110.468 101.636 111.217L103.038 112.869H101.19L100.653 112.236C99.9717 112.745 99.1593 113 98.2159 113C97.2725 113 96.5169 112.752 95.9491 112.255C95.3857 111.754 95.104 111.103 95.104 110.302ZM98.2617 111.733C98.799 111.733 99.3012 111.554 99.7686 111.197L97.6852 108.747L97.4821 108.891C96.958 109.287 96.696 109.74 96.696 110.25C96.696 110.69 96.8379 111.047 97.1218 111.321C97.4057 111.596 97.7857 111.733 98.2617 111.733ZM97.3839 105.605C97.3839 105.971 97.6088 106.431 98.0587 106.984L98.7859 106.487L98.989 106.324C99.2597 106.084 99.3951 105.777 99.3951 105.403C99.3951 105.155 99.3012 104.943 99.1134 104.769C98.9256 104.591 98.6876 104.501 98.3993 104.501C98.0892 104.501 97.8425 104.606 97.659 104.815C97.4756 105.024 97.3839 105.287 97.3839 105.605Z" fill="white"/>
<path d="M110.117 112.869V103.358H112.934C113.777 103.358 114.524 103.545 115.175 103.92C115.83 104.295 116.336 104.826 116.695 105.514C117.053 106.202 117.232 106.99 117.232 107.879V108.355C117.232 109.257 117.051 110.05 116.688 110.733C116.33 111.417 115.817 111.944 115.149 112.314C114.485 112.684 113.723 112.869 112.862 112.869H110.117ZM111.775 104.691V111.55H112.856C113.725 111.55 114.391 111.28 114.854 110.74C115.321 110.195 115.559 109.416 115.568 108.401V107.872C115.568 106.84 115.343 106.052 114.893 105.507C114.443 104.963 113.79 104.691 112.934 104.691H111.775Z" fill="white"/>
<path d="M123.782 107.252C123.572 107.217 123.356 107.199 123.133 107.199C122.404 107.199 121.913 107.478 121.659 108.035V112.869H120.067V105.801H121.587L121.626 106.592C122.011 105.978 122.544 105.671 123.225 105.671C123.452 105.671 123.64 105.701 123.788 105.762L123.782 107.252Z" fill="white"/>
<path d="M127.823 112.869H126.231V105.801H127.823V112.869ZM126.133 103.966C126.133 103.722 126.209 103.519 126.362 103.358C126.519 103.197 126.742 103.117 127.03 103.117C127.318 103.117 127.541 103.197 127.698 103.358C127.855 103.519 127.934 103.722 127.934 103.966C127.934 104.205 127.855 104.406 127.698 104.567C127.541 104.723 127.318 104.802 127.03 104.802C126.742 104.802 126.519 104.723 126.362 104.567C126.209 104.406 126.133 104.205 126.133 103.966Z" fill="white"/>
<path d="M132.381 105.801L132.427 106.618C132.951 105.986 133.639 105.671 134.491 105.671C135.967 105.671 136.718 106.513 136.744 108.199V112.869H135.152V108.29C135.152 107.842 135.054 107.511 134.858 107.297C134.665 107.079 134.349 106.971 133.908 106.971C133.266 106.971 132.787 107.26 132.473 107.839V112.869H130.881V105.801H132.381Z" fill="white"/>
<path d="M142.017 109.838L141.309 110.563V112.869H139.717V102.836H141.309V108.623L141.807 108.003L143.766 105.801H145.679L143.045 108.747L145.961 112.869H144.12L142.017 109.838Z" fill="white"/>
<path d="M152.039 110.949C152.039 110.666 151.921 110.45 151.685 110.302C151.454 110.154 151.067 110.023 150.526 109.91C149.984 109.797 149.532 109.653 149.17 109.479C148.375 109.096 147.977 108.541 147.977 107.813C147.977 107.204 148.235 106.694 148.75 106.285C149.266 105.875 149.921 105.671 150.716 105.671C151.563 105.671 152.247 105.88 152.766 106.298C153.29 106.716 153.553 107.258 153.553 107.924H151.961C151.961 107.619 151.847 107.367 151.62 107.167C151.393 106.962 151.091 106.86 150.716 106.86C150.366 106.86 150.08 106.94 149.858 107.101C149.639 107.262 149.53 107.478 149.53 107.748C149.53 107.992 149.633 108.181 149.838 108.316C150.043 108.451 150.458 108.588 151.083 108.728C151.707 108.863 152.196 109.026 152.55 109.218C152.908 109.405 153.173 109.631 153.343 109.897C153.518 110.163 153.605 110.485 153.605 110.864C153.605 111.5 153.341 112.016 152.812 112.412C152.284 112.804 151.591 113 150.735 113C150.155 113 149.637 112.895 149.183 112.686C148.729 112.477 148.375 112.19 148.121 111.824C147.868 111.458 147.741 111.064 147.741 110.642H149.288C149.309 111.016 149.451 111.306 149.713 111.511C149.975 111.711 150.323 111.811 150.755 111.811C151.174 111.811 151.493 111.733 151.712 111.576C151.93 111.415 152.039 111.206 152.039 110.949Z" fill="white"/>
<path d="M103.956 27.6588C94.0109 27.6693 84.3036 30.6932 76.121 36.3297C67.9384 41.9662 61.6669 49.9492 58.1378 59.2204H59.4202C62.914 50.2778 69.0343 42.5955 76.98 37.1792C84.9257 31.7629 94.3264 28.8651 103.951 28.8651C113.576 28.8651 122.977 31.7629 130.923 37.1792C138.869 42.5955 144.989 50.2778 148.483 59.2204H149.775C146.245 49.9499 139.973 41.9678 131.79 36.3314C123.608 30.6951 113.901 27.6707 103.956 27.6588Z" fill="white"/>
<path d="M47.305 59.2204C51.0284 47.1362 58.5403 36.5612 68.737 29.0486C78.9338 21.5361 91.2779 17.482 103.956 17.482C116.635 17.482 128.979 21.5361 139.176 29.0486C149.372 36.5612 156.884 47.1362 160.608 59.2204H163.104C159.358 46.4722 151.57 35.2776 140.906 27.3138C130.243 19.3499 117.279 15.0456 103.956 15.0456C90.6335 15.0456 77.6693 19.3499 67.0061 27.3138C56.3428 35.2776 48.5545 46.4722 44.8081 59.2204H47.305Z" fill="white"/>
<path fill-rule="evenodd" clip-rule="evenodd" d="M95.6495 37.8403C97.3206 39.3612 102.071 43.304 104.559 45.3964C107.046 47.4889 108.561 48.4964 115.751 57.0213L117.616 59.2398H130.645C129.382 58.1063 128.031 56.8954 126.545 55.607C115.43 45.9196 113.4 44.3889 111.496 42.4127C109.591 40.4365 105.754 35.0793 103.723 32.3765C98.4355 26.1565 92.7978 20.2409 86.8375 14.6582C79.8423 8.06112 74.4793 4.23458 70.9234 2.84928C70.9234 2.84928 66.7749 1.56086 65.2884 1.92898C63.802 2.2971 61.9366 3.26584 64.2294 5.80395C66.5223 8.34205 93.9687 36.3193 95.6495 37.8403Z" fill="white"/>
<path d="M103.315 44.3599C107.075 40.6593 110.534 37.3462 111.923 36.0771C114.964 33.2969 114.983 33.9459 117.092 33.1709C119.2 32.3959 122.027 33.2678 125.515 30.72C129.003 28.1722 135.143 20.4707 141.351 13.1858C147.56 5.90082 146.209 7.11175 145.238 8.04174C144.266 8.97173 127.565 25.4791 126.516 26.2153C126.306 26.3475 126.058 26.4063 125.811 26.3825C125.564 26.3586 125.332 26.2534 125.152 26.0835C124.971 25.9136 124.853 25.6887 124.815 25.4442C124.777 25.1997 124.821 24.9495 124.942 24.7332C125.554 23.9388 126.079 23.3382 129.489 19.531C132.899 15.7239 142.984 4.84489 142.741 4.6802C142.498 4.51552 124.281 22.5826 123.31 23.4157C122.338 24.2488 122.076 23.561 121.94 23.4157C121.794 23.2801 121.153 22.8829 121.94 22.0885C122.727 21.2941 141.283 3.40147 141.138 3.16897C140.992 2.93647 129.751 12.7692 125.845 16.1114C121.94 19.4535 121.318 19.9863 120.512 20.5579C119.705 21.1294 118.18 20.0929 118.928 19.066C119.676 18.0392 136.61 1.72554 137.562 0.795549C138.514 -0.134444 139.739 -1.43256 132.258 4.67052C124.777 10.7736 116.859 16.7701 114.255 20.1704C111.651 23.5707 112.584 26.2541 111.845 28.2981C111.107 30.3422 111.787 30.3325 108.931 33.3065C107.609 34.6725 104.141 38.1502 100.284 41.8605L103.315 44.3599Z" fill="white"/>
<path d="M89.2955 59.2204C90.0728 58.2517 90.8306 57.3701 91.5398 56.537C93.6578 54.057 97.8744 49.7558 101.974 45.6871L98.8848 43.178C94.7751 47.1111 90.4711 51.1217 87.9742 53.1561C85.6911 55.0064 82.893 57.1763 80.2018 59.2204H89.2955Z" fill="white"/>
</svg>
