<svg width="24" height="32" viewBox="0 0 24 32" fill="none" xmlns="http://www.w3.org/2000/svg">
<path d="M12 0C5.60964 0 0.410767 5.19887 0.410767 11.5891C0.410767 19.5196 10.782 31.1621 11.2235 31.6538C11.6383 32.1157 12.3624 32.1149 12.7764 31.6538C13.218 31.1621 23.5891 19.5196 23.5891 11.5891C23.589 5.19887 18.3902 0 12 0ZM12 17.4199C8.78483 17.4199 6.1692 14.8042 6.1692 11.5891C6.1692 8.374 8.78489 5.75837 12 5.75837C15.215 5.75837 17.8306 8.37406 17.8306 11.5892C17.8306 14.8043 15.215 17.4199 12 17.4199Z" fill="white"/>
</svg>
